<?xml version="1.0" encoding="utf-8"?>
<!-- Generator: Adobe Illustrator 22.1.0, SVG Export Plug-In . SVG Version: 6.00 Build 0)  -->
<svg version="1.1" id="Layer_1" xmlns="http://www.w3.org/2000/svg" xmlns:xlink="http://www.w3.org/1999/xlink" x="0px" y="0px"
	 viewBox="0 0 812.8 300" style="enable-background:new 0 0 812.8 300;" xml:space="preserve">
<style type="text/css">
	.st0{fill:#FFFFFF;stroke:#000000;stroke-width:4;stroke-miterlimit:10;}
	.st1{fill:none;stroke:#000000;stroke-width:4;stroke-miterlimit:10;}
	.st2{font-family:'CourierNewPS-BoldItalicMT';}
	.st3{font-size:84px;}
	.st4{font-family:'CourierNewPS-BoldMT';}
</style>
<path class="st0" d="M15.2,133.6c8.2,0.1,18.4,1,29.6,4c25,6.7,42.1,20.3,51.2,28.8"/>
<path class="st1" d="M9.6,202.7c12.9,0.4,32.7-0.4,54.4-8.4c47.5-17.5,59.2-58.4,89.6-58.4c11,0,27.2,5.2,47.2,32.1"/>
<path class="st1" d="M108,180.8c0.9,1.5,16,25.3,44.8,25.6c18.9,0.2,33.3-14,46.4-26.4c16.3-15.4,16.1-22.9,28.8-32
	c15.9-11.3,34.4-12.6,47.2-12"/>
<path class="st1" d="M208.8,180.8c3.6,4.8,14.1,17.8,33.1,23.9c15.5,5.1,28.9,3,34.9,1.7"/>
<path class="st0" d="M800.5,135.5c-8.2,0.1-18.4,1-29.6,4c-25,6.7-42.1,20.3-51.2,28.8"/>
<path class="st1" d="M806.1,204.6c-12.9,0.4-32.7-0.4-54.4-8.4c-47.5-17.5-59.2-58.4-89.6-58.4c-11,0-27.2,5.2-47.2,32.1"/>
<path class="st1" d="M707.7,182.7c-0.9,1.5-16,25.3-44.8,25.6c-18.9,0.2-33.3-14-46.4-26.4c-16.3-15.4-16.1-22.9-28.8-32
	c-15.9-11.3-34.4-12.6-47.2-12"/>
<path class="st1" d="M606.9,182.7c-3.6,4.8-14.1,17.8-33.1,23.9c-15.5,5.1-28.9,3-34.9,1.7"/>
<text transform="matrix(1 0 0 1 259.8002 67.4845)"><tspan x="0" y="0" class="st2 st3">pop</tspan><tspan x="151.2" y="0" class="st4 st3">VAE</tspan></text>
<rect x="292" y="91.2" class="st1" width="229.6" height="173.6"/>
<circle cx="324.3" cy="130.9" r="5"/>
<circle cx="329.4" cy="141" r="5"/>
<circle cx="318.3" cy="153.7" r="5"/>
<circle cx="344.8" cy="168" r="5"/>
<circle cx="336.1" cy="157.2" r="5"/>
<circle cx="341.1" cy="130.9" r="5"/>
<circle cx="361" cy="126.3" r="5"/>
<circle cx="349.9" cy="119.8" r="5"/>
<circle cx="414.4" cy="124.2" r="5"/>
<circle cx="427.9" cy="139.9" r="5"/>
<circle cx="465.4" cy="125.8" r="5"/>
<circle cx="470.4" cy="130.6" r="5"/>
<circle cx="485.1" cy="122.9" r="5"/>
<circle cx="471.2" cy="105.9" r="5"/>
<circle cx="480.1" cy="139.9" r="5"/>
<circle cx="466.7" cy="141" r="5"/>
<circle cx="454" cy="130.9" r="5"/>
<circle cx="442.4" cy="124.2" r="5"/>
<circle cx="438.1" cy="137.8" r="5"/>
<circle cx="435.8" cy="148.7" r="5"/>
<circle cx="431.8" cy="156" r="5"/>
<circle cx="452.5" cy="152.9" r="5"/>
<circle cx="443.8" cy="150" r="5"/>
<circle cx="465.4" cy="153.2" r="5"/>
<circle cx="450.2" cy="139.2" r="5"/>
<circle cx="415.8" cy="135.6" r="5"/>
<circle cx="409.4" cy="145" r="5"/>
<circle cx="409.8" cy="159.7" r="5"/>
<circle cx="420.8" cy="158.3" r="5"/>
<circle cx="427.9" cy="169.6" r="5"/>
<circle cx="338.1" cy="215.5" r="5"/>
<circle cx="327.4" cy="221.6" r="5"/>
<circle cx="342.2" cy="234.2" r="5"/>
<circle cx="346.9" cy="219.6" r="5"/>
<circle cx="339.8" cy="228.3" r="5"/>
<circle cx="331.1" cy="230.3" r="5"/>
<circle cx="334.5" cy="235.8" r="5"/>
<circle cx="344.3" cy="245.7" r="5"/>
<circle cx="485.9" cy="248.5" r="5"/>
<circle cx="488" cy="240.9" r="5"/>
<circle cx="496.3" cy="240.9" r="5"/>
<circle cx="492" cy="231.2" r="5"/>
<circle cx="434.6" cy="211.9" r="5"/>
<circle cx="442.9" cy="215.7" r="5"/>
<circle cx="435.6" cy="219.2" r="5"/>
<circle cx="447.4" cy="225" r="5"/>
</svg>
