<?xml version="1.0" encoding="utf-8"?>
<!-- Generator: Adobe Illustrator 22.1.0, SVG Export Plug-In . SVG Version: 6.00 Build 0)  -->
<svg version="1.1" id="Layer_1" xmlns="http://www.w3.org/2000/svg" xmlns:xlink="http://www.w3.org/1999/xlink" x="0px" y="0px"
	 viewBox="0 0 300.5 179.7" style="enable-background:new 0 0 300.5 179.7;" xml:space="preserve">
<style type="text/css">
	.st0{fill:#FFFFFF;stroke:#000000;stroke-miterlimit:10;}
	.st1{fill:none;stroke:#000000;stroke-width:0.25;stroke-miterlimit:10;}
	.st2{font-family:'MyriadPro-Regular';}
	.st3{font-size:7.0709px;}
	.st4{stroke:#000000;stroke-width:0.75;stroke-miterlimit:10;}
	.st5{fill:none;stroke:#000000;stroke-miterlimit:10;}
	.st6{fill:none;stroke:#000000;stroke-width:0.5;stroke-miterlimit:10;}
	.st7{font-family:'HelveticaNeue';}
	.st8{font-size:8px;}
	.st9{fill:#B5B5B5;}
	.st10{fill:#636464;}
	.st11{fill:#303030;}
	.st12{fill:none;stroke:#000000;stroke-width:0.5;stroke-miterlimit:10;stroke-dasharray:0.5,0.5;}
	.st13{font-family:'HelveticaNeue-LightItalic';}
	.st14{font-size:7.9593px;}
	.st15{font-size:7px;}
	.st16{fill:#FFFFFF;}
	.st17{font-family:'HelveticaNeue-Italic';}
</style>
<g>
	<rect x="35.9" y="41.4" class="st0" width="8.5" height="8.5"/>
	<rect x="35.9" y="52.5" class="st0" width="8.5" height="8.5"/>
	<rect x="35.9" y="63.3" class="st0" width="8.5" height="8.5"/>
	<rect x="35.9" y="78.7" class="st0" width="8.5" height="8.5"/>
	<rect x="35.9" y="90.4" class="st0" width="8.5" height="8.5"/>
	<rect x="35.9" y="102.4" class="st0" width="8.5" height="8.5"/>
	<rect x="53.1" y="41.4" class="st0" width="8.5" height="8.5"/>
	<rect x="53.1" y="52.5" class="st0" width="8.5" height="8.5"/>
	<rect x="53.1" y="63.3" class="st0" width="8.5" height="8.5"/>
	<rect x="53.1" y="78.7" class="st0" width="8.5" height="8.5"/>
	<rect x="53.1" y="90.4" class="st0" width="8.5" height="8.5"/>
	<rect x="53.1" y="102.4" class="st0" width="8.5" height="8.5"/>
	<polyline class="st1" points="44.4,45.6 53.1,45.6 44.4,67.5 	"/>
	<path class="st1" d="M53.1,56.7c-2.8-3.6-5.7-7.2-8.5-10.8c2.8,7.2,5.7,14.4,8.5,21.6"/>
	<line class="st1" x1="53.1" y1="106.6" x2="44.6" y2="45.9"/>
	<polyline class="st1" points="44.6,57.1 53.1,107.2 44.4,67.9 	"/>
	<polyline class="st1" points="53.1,82.9 44.6,82.9 53.1,46.1 44.6,57.1 53.1,57.1 44.6,82.9 53.1,67.9 	"/>
	<polyline class="st1" points="52.9,94.7 44.4,106.6 53.1,106.6 44.6,82.9 52.9,94.7 44.4,94.7 53.1,67.9 44.4,106.6 53.1,57.1 
		44.4,95.3 	"/>
	<polyline class="st1" points="53.1,106.6 44.4,95.3 53.1,83.9 44.4,67.9 53.1,67.9 44.6,57.1 53.1,83.4 44.6,45.9 53.1,95.3 
		44.4,68.4 	"/>
	<polyline class="st1" points="53.1,83.9 44.4,106.6 53.1,45.6 	"/>
	<line class="st1" x1="53.1" y1="46.1" x2="44.4" y2="95.3"/>
	<text transform="matrix(0 -1 1 0 40.0522 77.1436)" class="st2 st3">...</text>
	<text transform="matrix(-1 0 0 -1 69.4604 74.7539)" class="st2 st3">...</text>
	<text transform="matrix(-1 0 0 -1 69.4604 94.1289)" class="st2 st3">...</text>
	<text transform="matrix(-1 0 0 -1 69.4604 56.623)" class="st2 st3">...</text>
	<rect x="73.4" y="41.4" class="st0" width="8.5" height="8.5"/>
	<rect x="73.4" y="52.5" class="st0" width="8.5" height="8.5"/>
	<rect x="73.4" y="63.3" class="st0" width="8.5" height="8.5"/>
	<rect x="73.4" y="78.7" class="st0" width="8.5" height="8.5"/>
	<rect x="73.4" y="90.4" class="st0" width="8.5" height="8.5"/>
	<rect x="73.4" y="102.4" class="st0" width="8.5" height="8.5"/>
	<rect x="90.6" y="41.4" class="st0" width="8.5" height="8.5"/>
	<rect x="90.6" y="52.5" class="st0" width="8.5" height="8.5"/>
	<rect x="90.6" y="63.3" class="st0" width="8.5" height="8.5"/>
	<rect x="103.7" y="65.4" class="st0" width="8.5" height="8.5"/>
	<rect x="90.6" y="78.7" class="st0" width="8.5" height="8.5"/>
	<rect x="103.7" y="76.4" class="st0" width="8.5" height="8.5"/>
	<rect x="90.6" y="90.4" class="st0" width="8.5" height="8.5"/>
	<rect x="90.6" y="102.4" class="st0" width="8.5" height="8.5"/>
	<polyline class="st1" points="81.8,45.6 90.6,45.6 81.8,67.5 	"/>
	<path class="st1" d="M90.6,56.7c-2.8-3.6-5.7-7.2-8.5-10.8c2.8,7.2,5.7,14.4,8.5,21.6"/>
	<line class="st1" x1="90.6" y1="106.6" x2="82" y2="45.9"/>
	<polyline class="st1" points="82,57.1 90.6,107.2 81.8,67.9 	"/>
	<polyline class="st1" points="90.6,82.9 82,82.9 90.6,46.1 82,57.1 90.6,57.1 82,82.9 90.6,67.9 	"/>
	<polyline class="st1" points="90.4,94.7 81.8,106.6 90.6,106.6 82,82.9 90.4,94.7 81.8,94.7 90.6,67.9 81.8,106.6 90.6,57.1 
		81.8,95.3 	"/>
	<polyline class="st1" points="90.6,106.6 81.8,95.3 90.6,83.9 81.8,67.9 90.6,67.9 82,57.1 90.6,83.4 82,45.9 90.6,95.3 81.8,68.4 
			"/>
	<line class="st1" x1="90.6" y1="46.1" x2="81.8" y2="95.3"/>
	<text transform="matrix(0 -1 1 0 77.5092 77.1436)" class="st2 st3">...</text>
	<text transform="matrix(0 -1 1 0 94.9662 77.2373)" class="st2 st3">...</text>
	<polyline class="st1" points="90.6,83.9 81.8,106.6 90.6,45.6 	"/>
	<polyline class="st1" points="103.7,70.9 99.1,46.3 103.7,80.6 99.1,57.3 103.7,69.7 99.1,67.5 103.7,80.6 99.3,82.1 	"/>
	<polyline class="st1" points="99.1,82.9 103.7,69.7 99.1,94.1 99.1,95.3 103.7,80.6 99.1,106.6 103.7,69.7 	"/>
	<path class="st4" d="M121.9,46.1"/>
</g>
<rect x="134.1" y="56.6" class="st5" width="38.7" height="38.7"/>
<g>
	<g>
		<path class="st6" d="M120,74.3c2.7,0,5.4,0,8.1,0"/>
		<g>
			<polygon points="127.6,76.2 130.9,74.3 127.6,72.4 			"/>
		</g>
	</g>
</g>
<g>
	<g>
		<path class="st6" d="M27.8,75.4c1.1,0,2.1,0,3.2,0"/>
		<g>
			<polygon points="30.4,77.3 33.7,75.4 30.5,73.5 			"/>
		</g>
	</g>
</g>
<g>
	<g>
		<path class="st6" d="M154.7,70.1c6.2-3,10.3-2.7,12.9-1.8c3.1,1.1,4.8,3.2,9.6,4.7c1.4,0.4,2.6,0.7,3.7,0.8"/>
		<g>
			<polygon points="180.2,75.6 183.6,74 180.5,71.8 			"/>
		</g>
	</g>
</g>
<g>
	
		<rect x="254.2" y="40.8" transform="matrix(-1 -1.224647e-16 1.224647e-16 -1 516.8291 90.0274)" class="st0" width="8.5" height="8.5"/>
	
		<rect x="254.2" y="51.9" transform="matrix(-1 -1.224647e-16 1.224647e-16 -1 516.8291 112.2057)" class="st0" width="8.5" height="8.5"/>
	
		<rect x="254.2" y="62.7" transform="matrix(-1 1.073471e-13 -1.073471e-13 -1 516.8291 133.8003)" class="st0" width="8.5" height="8.5"/>
	
		<rect x="254.2" y="78.1" transform="matrix(-1 1.073471e-13 -1.073471e-13 -1 516.8291 164.5705)" class="st0" width="8.5" height="8.5"/>
	
		<rect x="254.2" y="89.8" transform="matrix(-1 -1.224647e-16 1.224647e-16 -1 516.8291 188.0788)" class="st0" width="8.5" height="8.5"/>
	
		<rect x="254.2" y="101.8" transform="matrix(-1 -1.224647e-16 1.224647e-16 -1 516.8291 212.008)" class="st0" width="8.5" height="8.5"/>
	
		<rect x="237" y="40.8" transform="matrix(-1 -2.150616e-13 2.150616e-13 -1 482.3944 90.0274)" class="st0" width="8.5" height="8.5"/>
	
		<rect x="237" y="51.9" transform="matrix(-1 -1.075921e-13 1.075921e-13 -1 482.3944 112.2057)" class="st0" width="8.5" height="8.5"/>
	
		<rect x="237" y="62.7" transform="matrix(-1 -1.075921e-13 1.075921e-13 -1 482.3944 133.8003)" class="st0" width="8.5" height="8.5"/>
	
		<rect x="237" y="78.1" transform="matrix(-1 -1.075921e-13 1.075921e-13 -1 482.3944 164.5705)" class="st0" width="8.5" height="8.5"/>
	
		<rect x="237" y="89.8" transform="matrix(-1 -1.075921e-13 1.075921e-13 -1 482.3944 188.0788)" class="st0" width="8.5" height="8.5"/>
	
		<rect x="237" y="101.8" transform="matrix(-1 -1.224647e-16 1.224647e-16 -1 482.3944 212.008)" class="st0" width="8.5" height="8.5"/>
	<polyline class="st1" points="254.2,45 245.4,45 254.2,66.9 	"/>
	<path class="st1" d="M245.4,56.1c2.8-3.6,5.7-7.2,8.5-10.8c-2.8,7.2-5.7,14.4-8.5,21.6"/>
	<line class="st1" x1="245.4" y1="106" x2="254" y2="45.3"/>
	<polyline class="st1" points="254,56.5 245.4,106.6 254.2,67.3 	"/>
	<polyline class="st1" points="245.4,82.3 254,82.3 245.4,45.5 254,56.5 245.4,56.5 254,82.3 245.4,67.3 	"/>
	<polyline class="st1" points="245.6,94 254.2,106 245.4,106 254,82.3 245.6,94 254.2,94 245.4,67.3 254.2,106 245.4,56.5 
		254.2,94.6 	"/>
	<polyline class="st1" points="245.4,106 254.2,94.6 245.4,83.3 254.2,67.3 245.4,67.3 254,56.5 245.4,82.7 254,45.3 245.4,94.6 
		254.2,67.8 	"/>
	<polyline class="st1" points="245.4,83.3 254.2,106 245.4,45 	"/>
	<line class="st1" x1="245.4" y1="45.5" x2="254.2" y2="94.6"/>
	<text transform="matrix(0 -1 -1 0 258.5092 76.5323)" class="st2 st3">...</text>
	<text transform="matrix(1 0 0 -1 229.101 74.1426)" class="st2 st3">...</text>
	<text transform="matrix(1 0 0 -1 229.101 93.5176)" class="st2 st3">...</text>
	<text transform="matrix(1 0 0 -1 229.101 56.0118)" class="st2 st3">...</text>
	
		<rect x="216.7" y="40.8" transform="matrix(-1 -1.075921e-13 1.075921e-13 -1 441.9163 90.0274)" class="st0" width="8.5" height="8.5"/>
	
		<rect x="216.7" y="51.9" transform="matrix(-1 -1.075921e-13 1.075921e-13 -1 441.9163 112.2057)" class="st0" width="8.5" height="8.5"/>
	
		<rect x="216.7" y="62.7" transform="matrix(-1 -1.075921e-13 1.075921e-13 -1 441.9163 133.8003)" class="st0" width="8.5" height="8.5"/>
	
		<rect x="216.7" y="78.1" transform="matrix(-1 -1.075921e-13 1.075921e-13 -1 441.9163 164.5705)" class="st0" width="8.5" height="8.5"/>
	
		<rect x="216.7" y="89.8" transform="matrix(-1 -1.075921e-13 1.075921e-13 -1 441.9163 188.0788)" class="st0" width="8.5" height="8.5"/>
	
		<rect x="216.7" y="101.8" transform="matrix(-1 -1.224647e-16 1.224647e-16 -1 441.9163 212.008)" class="st0" width="8.5" height="8.5"/>
	
		<rect x="199.5" y="40.8" transform="matrix(-1 -1.224647e-16 1.224647e-16 -1 407.4816 90.0274)" class="st0" width="8.5" height="8.5"/>
	
		<rect x="199.5" y="51.9" transform="matrix(-1 1.073471e-13 -1.073471e-13 -1 407.4816 112.2057)" class="st0" width="8.5" height="8.5"/>
	
		<rect x="199.5" y="62.7" transform="matrix(-1 1.073471e-13 -1.073471e-13 -1 407.4816 133.8003)" class="st0" width="8.5" height="8.5"/>
	
		<rect x="186.4" y="64.8" transform="matrix(-1 -1.075921e-13 1.075921e-13 -1 381.3577 138.0924)" class="st0" width="8.5" height="8.5"/>
	
		<rect x="199.5" y="78.1" transform="matrix(-1 1.073471e-13 -1.073471e-13 -1 407.4816 164.5705)" class="st0" width="8.5" height="8.5"/>
	
		<rect x="186.4" y="75.7" transform="matrix(-1 -1.075921e-13 1.075921e-13 -1 381.3577 159.9572)" class="st0" width="8.5" height="8.5"/>
	
		<rect x="199.5" y="89.8" transform="matrix(-1 -1.224647e-16 1.224647e-16 -1 407.4816 188.0788)" class="st0" width="8.5" height="8.5"/>
	
		<rect x="199.5" y="101.8" transform="matrix(-1 -1.224647e-16 1.224647e-16 -1 407.4816 212.008)" class="st0" width="8.5" height="8.5"/>
	<polyline class="st1" points="216.7,45 208,45 216.7,66.9 	"/>
	<path class="st1" d="M208,56.1c2.8-3.6,5.7-7.2,8.5-10.8c-2.8,7.2-5.7,14.4-8.5,21.6"/>
	<line class="st1" x1="208" y1="106" x2="216.5" y2="45.3"/>
	<polyline class="st1" points="216.5,56.5 208,106.6 216.7,67.3 	"/>
	<polyline class="st1" points="208,82.3 216.5,82.3 208,45.5 216.5,56.5 208,56.5 216.5,82.3 208,67.3 	"/>
	<polyline class="st1" points="208.2,94 216.7,106 208,106 216.5,82.3 208.2,94 216.7,94 208,67.3 216.7,106 208,56.5 216.7,94.6 	
		"/>
	<polyline class="st1" points="208,106 216.7,94.6 208,83.3 216.7,67.3 208,67.3 216.5,56.5 208,82.7 216.5,45.3 208,94.6 
		216.7,67.8 	"/>
	<line class="st1" x1="208" y1="45.5" x2="216.7" y2="94.6"/>
	<text transform="matrix(0 -1 -1 0 221.0522 76.5323)" class="st2 st3">...</text>
	<text transform="matrix(0 -1 -1 0 203.5951 76.626)" class="st2 st3">...</text>
	<polyline class="st1" points="208,83.3 216.7,106 208,45 	"/>
	<polyline class="st1" points="194.9,70.2 199.5,45.7 194.9,80 199.5,56.7 194.9,69 199.5,66.9 194.9,80 199.2,81.4 	"/>
	<polyline class="st1" points="199.5,82.3 194.9,69 199.5,93.5 199.5,94.6 194.9,80 199.5,106 194.9,69 	"/>
	<path class="st4" d="M176.7,45.4"/>
</g>
<text transform="matrix(1 0 0 1 53.0673 35.373)" class="st7 st8">Encoder</text>
<text transform="matrix(1 0 0 1 215.1934 35.373)" class="st7 st8">Decoder</text>
<text transform="matrix(1 0 0 1 130.4493 50.5261)" class="st7 st8">Latent Space</text>
<text transform="matrix(1 0 0 1 104.7452 213.9158)" class="st7 st8">= </text>
<g>
	
		<ellipse transform="matrix(0.4619 -0.8869 0.8869 0.4619 -102.8143 237.5076)" class="st9" cx="144.3" cy="203.5" rx="7.6" ry="4"/>
	
		<ellipse transform="matrix(0.4619 -0.8869 0.8869 0.4619 -102.8143 237.5076)" class="st10" cx="144.3" cy="203.5" rx="5.5" ry="3"/>
	
		<ellipse transform="matrix(0.4619 -0.8869 0.8869 0.4619 -103.1467 237.5293)" class="st11" cx="144.2" cy="203.8" rx="3.4" ry="1.8"/>
	<ellipse transform="matrix(0.4619 -0.8869 0.8869 0.4619 -103.1053 237.41)" cx="144.1" cy="203.7" rx="1.7" ry="0.9"/>
</g>
<g>
	<path class="st6" d="M138.4,74c0.5,0,1.2-0.1,2.1-0.2c0,0,1.2-0.2,2.3-0.5c3-0.8,4.3-4.7,6.7-4.8c2-0.1,2.5,2.7,5.9,4.3
		c1.2,0.6,2.5,0.8,2.7,0.8c1.3,0.3,2.5,0.3,3.3,0.3"/>
	<line class="st12" x1="149.4" y1="68.5" x2="149.4" y2="74"/>
	<text transform="matrix(1 0 0 1 139.9764 82.7587)" class="st13 st14">N(µ,σ)</text>
</g>
<text transform="matrix(1 0 0 1 114.6723 71.0031)" class="st13 st15">µ</text>
<text transform="matrix(1 0 0 1 114.4093 81.5948)" class="st13 st15">σ</text>
<g>
	<polygon class="st0" points="25.5,40.9 15.3,40.9 15.3,111.1 25.3,111.1 	"/>
	<g>
		<path class="st16" d="M20,40.9"/>
	</g>
	<g>
		<path class="st16" d="M20,111.1"/>
	</g>
	<line class="st0" x1="15.3" y1="52.6" x2="25.3" y2="52.6"/>
	<line class="st0" x1="15.3" y1="64.3" x2="25.3" y2="64.3"/>
	<line class="st0" x1="15.3" y1="76" x2="25.3" y2="76"/>
	<line class="st0" x1="15.3" y1="87.7" x2="25.3" y2="87.7"/>
	<line class="st0" x1="15.3" y1="99.4" x2="25.3" y2="99.4"/>
	<text transform="matrix(0 -1 1 0 22.5467 107.3281)" class="st2 st15">1</text>
	<text transform="matrix(0 -1 1 0 22.5463 95.9326)" class="st2 st15">1</text>
	<text transform="matrix(0 -1 1 0 22.5466 60.5039)" class="st2 st15">1</text>
	<text transform="matrix(0 -1 1 0 22.5464 49.1084)" class="st2 st15">0</text>
	<text transform="matrix(0 -1 1 0 22.5463 72.3135)" class="st2 st15">0</text>
	<text transform="matrix(0 -1 1 0 22.5464 83.4131)" class="st2 st15">0</text>
</g>
<g>
	<polygon class="st0" points="282.4,39.9 272.2,39.9 272.2,110.1 282.2,110.1 	"/>
	<g>
		<path class="st16" d="M277,39.9"/>
	</g>
	<g>
		<path class="st16" d="M277,110.1"/>
	</g>
	<line class="st0" x1="272.2" y1="51.6" x2="282.2" y2="51.6"/>
	<line class="st0" x1="272.2" y1="63.3" x2="282.2" y2="63.3"/>
	<line class="st0" x1="272.2" y1="75" x2="282.2" y2="75"/>
	<line class="st0" x1="272.2" y1="86.7" x2="282.2" y2="86.7"/>
	<line class="st0" x1="272.2" y1="98.4" x2="282.2" y2="98.4"/>
	<text transform="matrix(0 -1 1 0 279.4885 106.3281)" class="st2 st15">1</text>
	<text transform="matrix(0 -1 1 0 279.4881 94.9326)" class="st2 st15">0</text>
	<text transform="matrix(0 -1 1 0 279.4885 59.5039)" class="st2 st15">1</text>
	<text transform="matrix(0 -1 1 0 279.4882 48.1084)" class="st2 st15">0</text>
	<text transform="matrix(0 -1 1 0 279.4881 71.3135)" class="st2 st15">0</text>
	<text transform="matrix(0 -1 1 0 279.4882 82.4131)" class="st2 st15">0</text>
</g>
<g>
	<g>
		<path class="st6" d="M264,74.9c1.1,0,2.1,0,3.2,0"/>
		<g>
			<polygon points="266.7,76.9 270,75 266.7,73.1 			"/>
		</g>
	</g>
</g>
<g>
	<polygon class="st0" points="184.4,134.5 184.4,124.3 114.2,124.3 114.2,134.2 	"/>
	<g>
		<path class="st16" d="M184.4,129"/>
	</g>
	<g>
		<path class="st16" d="M114.2,129"/>
	</g>
	<line class="st0" x1="172.7" y1="124.3" x2="172.7" y2="134.2"/>
	<line class="st0" x1="161" y1="124.3" x2="161" y2="134.2"/>
	<line class="st0" x1="149.3" y1="124.3" x2="149.3" y2="134.2"/>
	<line class="st0" x1="137.6" y1="124.3" x2="137.6" y2="134.2"/>
	<line class="st0" x1="125.9" y1="124.3" x2="125.9" y2="134.2"/>
	<text transform="matrix(1 0 0 1 117.9383 131.5067)" class="st2 st15">1</text>
	<text transform="matrix(1 0 0 1 129.3338 131.5063)" class="st2 st15">1</text>
	<text transform="matrix(1 0 0 1 164.7625 131.5067)" class="st2 st15">1</text>
	<text transform="matrix(1 0 0 1 176.1581 131.5064)" class="st2 st15">0</text>
	<text transform="matrix(1 0 0 1 152.953 131.5063)" class="st2 st15">0</text>
	<text transform="matrix(1 0 0 1 141.8533 131.5064)" class="st2 st15">0</text>
</g>
<g>
	<polygon class="st0" points="184.4,144.1 184.4,133.9 114.2,133.9 114.2,143.9 	"/>
	<g>
		<path class="st16" d="M184.4,138.6"/>
	</g>
	<g>
		<path class="st16" d="M114.2,138.6"/>
	</g>
	<line class="st0" x1="172.7" y1="133.9" x2="172.7" y2="143.9"/>
	<line class="st0" x1="161" y1="133.9" x2="161" y2="143.9"/>
	<line class="st0" x1="149.3" y1="133.9" x2="149.3" y2="143.9"/>
	<line class="st0" x1="137.6" y1="133.9" x2="137.6" y2="143.9"/>
	<line class="st0" x1="125.9" y1="133.9" x2="125.9" y2="143.9"/>
	<text transform="matrix(1 0 0 1 117.9383 141.1631)" class="st2 st15">1</text>
	<text transform="matrix(1 0 0 1 129.3338 141.1627)" class="st2 st15">0</text>
	<text transform="matrix(1 0 0 1 164.7625 141.1631)" class="st2 st15">1</text>
	<text transform="matrix(1 0 0 1 176.1581 141.1628)" class="st2 st15">0</text>
	<text transform="matrix(1 0 0 1 152.953 141.1627)" class="st2 st15">0</text>
	<text transform="matrix(1 0 0 1 141.8533 141.1628)" class="st2 st15">0</text>
</g>
<g>
	<polygon class="st0" points="101.4,217.9 101.4,207.7 31.2,207.7 31.2,217.7 	"/>
	<g>
		<path class="st16" d="M101.4,212.4"/>
	</g>
	<g>
		<path class="st16" d="M31.2,212.4"/>
	</g>
	<line class="st0" x1="89.7" y1="207.7" x2="89.7" y2="217.7"/>
	<line class="st0" x1="78" y1="207.7" x2="78" y2="217.7"/>
	<line class="st0" x1="66.3" y1="207.7" x2="66.3" y2="217.7"/>
	<line class="st0" x1="54.6" y1="207.7" x2="54.6" y2="217.7"/>
	<line class="st0" x1="42.9" y1="207.7" x2="42.9" y2="217.7"/>
	<text transform="matrix(1 0 0 1 35.0098 214.9422)" class="st2 st15">0</text>
	<text transform="matrix(1 0 0 1 46.4054 214.9418)" class="st2 st15">1</text>
	<text transform="matrix(1 0 0 1 81.8341 214.9422)" class="st2 st15">0</text>
	<text transform="matrix(1 0 0 1 93.2296 214.9419)" class="st2 st15">0</text>
	<text transform="matrix(1 0 0 1 70.0245 214.9418)" class="st2 st15">0</text>
	<text transform="matrix(1 0 0 1 58.9249 214.9419)" class="st2 st15">0</text>
</g>
<text transform="matrix(1 0 0 1 157.4804 154.17)" class="st17 st8">reconstruction loss</text>
<text transform="matrix(1 0 0 1 120.8788 111.8032)"><tspan x="0" y="0" class="st17 st8">KL-divergence(</tspan><tspan x="54.2" y="0" class="st17 st14">µ,σ)</tspan></text>
<text transform="matrix(1 0 0 1 72.0428 170.2072)"><tspan x="0" y="0" class="st17 st8">KL-divergence(</tspan><tspan x="54.2" y="0" class="st17 st14">µ,σ) + reconstruction loss = VAE loss</tspan></text>
<g>
	<g>
		<path class="st6" d="M154.3,87c1,2.7,2,6.2,2.5,10.5c0.1,1.4,0.2,2.8,0.2,4.1"/>
		<g>
			<polygon points="155,100.9 156.8,104.3 158.9,101.1 			"/>
		</g>
	</g>
</g>
<g>
	<g>
		<path class="st6" d="M148.9,146.6c0.3,0.7,0.9,2,2.2,3.1c0.7,0.6,1.4,0.9,2,1.2"/>
		<g>
			<polygon points="152.2,152.5 155.9,151.4 153.1,148.7 			"/>
		</g>
	</g>
</g>
<g>
	<g>
		<path class="st6" d="M21.6,114.3c10.1,3.6,21.8,7.1,35.2,9.6c18.5,3.6,35.1,4.5,48.8,4.2"/>
		<g>
			<polygon points="105.1,130.1 108.5,128.1 105,126.1 			"/>
		</g>
	</g>
</g>
<g>
	<g>
		<path class="st6" d="M277.9,112.8c-10.5,6.5-25.7,14.3-45.2,19.6c-15.5,4.2-29.4,5.6-40.4,5.9"/>
		<g>
			<polygon points="192.8,136.3 189.5,138.4 193,140.2 			"/>
		</g>
	</g>
</g>
</svg>
